<?xml version="1.0" encoding="utf-8"?>
<!-- Generator: Adobe Illustrator 19.2.1, SVG Export Plug-In . SVG Version: 6.00 Build 0)  -->
<svg version="1.1" id="Layer_1" xmlns="http://www.w3.org/2000/svg" xmlns:xlink="http://www.w3.org/1999/xlink" x="0px" y="0px"
	 viewBox="0 0 134.3 33.2" style="enable-background:new 0 0 134.3 33.2;" xml:space="preserve">
<style type="text/css">
	.st0{fill:#394149;}
</style>
<title>logo-5</title>
<path class="st0" d="M33.7,9.1h3v14.5h-3V9.1z"/>
<path class="st0" d="M38.3,18.6c0-2.9,2.4-5.2,5.3-5.2c2.9,0,5.2,2.4,5.2,5.3s-2.4,5.2-5.3,5.2c0,0,0,0,0,0c-2.9,0-5.2-2.3-5.2-5.1
	C38.3,18.7,38.3,18.6,38.3,18.6z M45.9,18.6c0-1.3-1.1-2.3-2.3-2.2c-1.3,0-2.3,1.1-2.2,2.3c0,1.2,1,2.2,2.3,2.2c1.2,0,2.2-1,2.3-2.2
	C45.8,18.7,45.8,18.6,45.9,18.6L45.9,18.6z"/>
<path class="st0" d="M60.6,13.6V23c0,3.3-2.6,4.7-5.2,4.7c-1.9,0.2-3.7-0.8-4.7-2.4l2.5-1.5c0.4,0.8,1.3,1.3,2.3,1.3
	c1.1,0.1,2.1-0.6,2.2-1.7c0-0.1,0-0.3,0-0.4v-0.9C57,23,56,23.5,54.9,23.4c-2.8,0-5-2.2-5-5s2.2-5,5-5c1.1-0.1,2.2,0.4,2.9,1.3v-1
	L60.6,13.6z M57.8,18.4c0.1-1.3-1-2.4-2.3-2.5c-1.3-0.1-2.4,1-2.5,2.3s1,2.4,2.3,2.5c0,0,0.1,0,0.1,0c1.2,0.1,2.3-0.8,2.4-2.1
	C57.8,18.5,57.8,18.5,57.8,18.4z"/>
<path class="st0" d="M62.3,18.6c0-2.9,2.4-5.2,5.3-5.2c2.9,0,5.3,2.4,5.2,5.3s-2.4,5.2-5.3,5.2c0,0,0,0,0,0c-2.9,0-5.2-2.3-5.2-5.1
	C62.3,18.7,62.3,18.6,62.3,18.6z M69.9,18.6c0-1.3-1.1-2.3-2.3-2.2c-1.3,0-2.3,1.1-2.2,2.3c0,1.2,1,2.2,2.3,2.2c1.2,0,2.2-1,2.3-2.2
	C69.8,18.7,69.8,18.6,69.9,18.6L69.9,18.6z"/>
<path class="st0" d="M74.2,11c0-1,0.8-1.8,1.8-1.8c1,0,1.8,0.8,1.8,1.8S77,12.8,76,12.8l0,0C75,12.8,74.2,12,74.2,11z M74.5,13.6h3
	v9.9h-3V13.6z"/>
<path class="st0" d="M90.3,18.6c0.1,2.8-2,5.1-4.7,5.2c0,0,0,0,0,0c-1.1,0.1-2.2-0.4-3-1.2v4.9h-3V13.6h3v0.9c0.8-0.8,1.9-1.3,3-1.2
	C88.3,13.5,90.5,15.8,90.3,18.6C90.3,18.6,90.3,18.6,90.3,18.6z M87.3,18.6c0-1.3-1.1-2.3-2.4-2.3s-2.3,1.1-2.3,2.4
	c0,1.3,1.1,2.3,2.4,2.3c1.2,0.1,2.3-0.9,2.4-2.2C87.3,18.8,87.3,18.7,87.3,18.6z"/>
<path class="st0" d="M99.5,20.6c0,2.3-2,3.3-4.1,3.3c-1.8,0.2-3.5-0.8-4.3-2.4l2.6-1.5c0.2,0.7,0.9,1.2,1.7,1.2
	c0.7,0,1.1-0.2,1.1-0.6c0-1.1-4.9-0.5-4.9-3.9c0-2.2,1.8-3.2,3.9-3.2c1.6-0.1,3.1,0.7,3.9,2.1l-2.6,1.4C96.5,16.3,96,16,95.4,16
	c-0.5,0-0.8,0.2-0.8,0.6C94.6,17.7,99.5,16.9,99.5,20.6z"/>
<path class="st0" d="M110.3,13.6v9.9h-3v-0.9c-0.7,0.8-1.7,1.3-2.8,1.2c-2,0-3.7-1.4-3.7-4.1v-6.1h3v5.7c-0.1,0.9,0.6,1.7,1.5,1.8
	c0.1,0,0.2,0,0.3,0c1.1,0,1.8-0.6,1.8-2v-5.5H110.3z"/>
<path class="st0" d="M127.3,17.5v6.1h-3v-5.8c0-1-0.5-1.6-1.4-1.6s-1.6,0.7-1.6,1.9v5.6h-3v-5.8c0-1-0.5-1.6-1.4-1.6
	s-1.6,0.7-1.6,1.9v5.6h-3v-9.9h3v0.9c0.6-0.8,1.6-1.3,2.7-1.2c1-0.1,2,0.4,2.6,1.3c0.7-0.9,1.8-1.4,2.9-1.3
	C125.9,13.4,127.3,15,127.3,17.5z"/>
<path class="st0" d="M15.8,6.5V2.2H2.4v29.2h13.4v-4.3c-5.7,0-10.4-4.6-10.4-10.3S10.1,6.5,15.8,6.5z"/>
<path class="st0" d="M15.8,6.5v20.7c5.7,0,10.4-4.6,10.4-10.4S21.5,6.5,15.8,6.5L15.8,6.5z"/>
<circle class="st0" cx="129.9" cy="11.4" r="2.2"/>
</svg>
